<svg width="15" height="14" viewBox="0 0 15 14" fill="none" xmlns="http://www.w3.org/2000/svg">
<path d="M14.8474 9.36305C14.7635 9.49415 14.6694 9.6186 14.5661 9.7353C14.4159 9.88354 14.2151 9.91708 14.0055 9.91641C13.0776 9.91641 12.1491 9.91641 11.2213 9.91641C10.6458 9.91641 10.4199 9.74269 10.2637 9.15176C9.92557 9.26445 9.56716 9.34091 9.24931 9.49518C8.62242 9.80037 8.30255 10.3303 8.26873 11.0218C8.25047 11.3719 8.27617 11.7281 8.21937 12.0715C8.12202 12.6208 7.82254 13.1146 7.37899 13.4574C6.93543 13.8002 6.37939 13.9674 5.81859 13.9268C5.2578 13.8861 4.73219 13.6404 4.34363 13.2373C3.95507 12.8341 3.73122 12.3023 3.71546 11.7448C3.70194 11.2264 3.71141 10.7072 3.71073 10.1887V9.91574C3.44023 9.91574 3.18933 9.91574 2.93911 9.91574C2.31386 9.91419 1.70755 9.70272 1.21894 9.31578C0.730328 8.92884 0.388196 8.38922 0.248268 7.7848C0.196226 7.5568 0.170371 7.32369 0.171182 7.08992C0.163968 5.79316 0.163968 4.4964 0.171182 3.19964C0.177944 1.58048 1.38845 0.382536 3.02365 0.378512C4.55876 0.373816 6.09387 0.391258 7.62899 0.372477C8.57034 0.361075 9.45489 0.522049 10.2759 1.03248C10.305 0.965407 10.3279 0.903033 10.355 0.844679C10.4855 0.560957 10.7087 0.386565 11.0218 0.383211C12.0587 0.373821 13.0957 0.373821 14.1326 0.383211C14.4031 0.383211 14.6107 0.530098 14.7487 0.764186C14.7818 0.819857 14.8163 0.874856 14.8488 0.929856L14.8474 9.36305ZM10.2948 7.58358C10.2948 6.10796 10.2948 4.66319 10.2901 3.21641C10.2823 3.11792 10.244 3.02422 10.1805 2.94811C9.63952 2.26396 8.9193 1.89303 8.04151 1.88499C6.35492 1.87023 4.66764 1.87761 2.98104 1.88499C2.23716 1.88499 1.69615 2.42963 1.69074 3.17482C1.68623 4.48813 1.68623 5.80165 1.69074 7.11541C1.69074 7.87334 2.23581 8.40456 3.00201 8.40925C3.44902 8.40925 3.8967 8.40925 4.34371 8.40925C4.93814 8.40925 5.23232 8.69834 5.233 9.28121C5.233 10.0505 5.233 10.8239 5.233 11.5899C5.233 12.0789 5.54408 12.4189 5.98568 12.423C6.42727 12.427 6.74647 12.0876 6.75052 11.6013C6.75052 11.4175 6.75052 11.2337 6.75052 11.0493C6.7526 10.3582 6.97595 9.68559 7.38835 9.12852C7.80075 8.57145 8.38088 8.15871 9.04508 7.9498C9.44948 7.82035 9.86336 7.70767 10.2948 7.58358ZM11.8313 1.89371V8.38846H13.319V1.89371H11.8313Z" fill="white"/>
</svg>
