<svg width="20" height="20" viewBox="0 0 20 20" fill="none" xmlns="http://www.w3.org/2000/svg">
<path d="M15.9456 4.51297C15.9456 5.1147 15.4442 5.61614 14.8425 5.61614C14.2407 5.61614 13.7393 5.1147 13.7393 4.51297C13.7393 3.91124 14.2407 3.4098 14.8425 3.4098C15.4442 3.4098 15.9456 3.91124 15.9456 4.51297ZM14.5416 9.57752C14.5416 12.185 12.4356 14.2911 9.82812 14.2911C7.22066 14.2911 5.11464 12.185 5.11464 9.57752C5.11464 6.97003 7.22066 4.86398 9.82812 4.86398C12.4356 4.81383 14.5416 6.97003 14.5416 9.57752ZM12.8869 9.57752C12.8869 7.92277 11.533 6.56888 9.87826 6.56888C8.22353 6.56888 6.86966 7.92277 6.86966 9.57752C6.86966 11.2323 8.22353 12.5862 9.87826 12.5862C11.4829 12.5862 12.8869 11.2323 12.8869 9.57752ZM19.4055 5.76657C19.4055 2.55735 16.8482 0 13.639 0H5.7665C2.55732 0 0 2.55735 0 5.76657V13.6392C0 16.8484 2.55732 19.4058 5.7665 19.4058H13.639C16.8482 19.4058 19.4055 16.8484 19.4055 13.6392V5.76657ZM17.5001 13.5389C17.5001 15.7452 15.745 17.5003 13.5387 17.5003H5.86679C3.66048 17.5003 1.90545 15.7452 1.90545 13.5389V5.86686C1.90545 3.66052 3.66048 1.90548 5.86679 1.90548H13.5387C15.745 1.90548 17.5001 3.66052 17.5001 5.86686V13.5389Z" fill="#AAAAAA"/>
</svg>
