<svg width="20" height="16" viewBox="0 0 20 16" fill="none" xmlns="http://www.w3.org/2000/svg">
<path d="M19.2258 1.96152C18.624 2.26239 17.922 2.41283 17.2702 2.51312C17.571 2.46297 18.0223 1.91138 18.2229 1.66065C18.5237 1.30963 18.7243 0.908473 18.8747 0.457166C18.8747 0.407021 18.9249 0.356876 18.8747 0.356876C18.8246 0.356876 18.8246 0.356876 18.7745 0.356876C18.0223 0.758037 17.2702 1.05891 16.4679 1.25949C16.4177 1.25949 16.3676 1.25949 16.3174 1.20934C16.2673 1.10905 16.167 1.05891 16.1168 1.00876C15.7658 0.707892 15.4148 0.507311 15.0137 0.30673C14.4621 0.10615 13.8604 0.00585938 13.3088 0.00585938C12.7572 0.0560046 12.1555 0.20644 11.6541 0.457166C11.1526 0.707892 10.7013 1.10905 10.3503 1.51021C9.99933 1.96152 9.69848 2.51312 9.54805 3.06472C9.39762 3.61631 9.44776 4.16791 9.4979 4.71951C9.4979 4.8198 9.4979 4.8198 9.39761 4.8198C6.18843 4.36849 3.58096 3.21515 1.42479 0.758037C1.3245 0.657747 1.27436 0.657747 1.22421 0.758037C0.271485 2.1621 0.722778 4.41864 1.92622 5.52183C2.07665 5.67227 2.22708 5.8227 2.42766 5.97314C2.37752 5.97314 1.57522 5.92299 0.873209 5.52183C0.772922 5.47168 0.722777 5.52183 0.722777 5.62212C0.722777 5.77256 0.72278 5.92299 0.772924 6.07343C0.973498 7.47749 1.92623 8.83141 3.2801 9.33286C3.43053 9.38301 3.63111 9.4833 3.78154 9.4833C3.48068 9.53344 3.17981 9.58359 2.27723 9.53344C2.17694 9.53344 2.1268 9.58359 2.17694 9.68388C2.82881 11.4891 4.28297 12.0407 5.33599 12.3416C5.48642 12.3416 5.63685 12.3416 5.78728 12.3917C5.78728 12.3917 5.78728 12.3917 5.73713 12.4419C5.38613 12.9935 4.13254 13.3946 3.58096 13.5952C2.52795 13.9462 1.37465 14.1468 0.271488 13.9964C0.0709138 13.9462 0.0709139 13.9964 0.0207703 13.9964C-0.0293733 14.0465 0.0207695 14.0465 0.0709131 14.0967C0.271487 14.2471 0.522206 14.3975 0.772924 14.4978C1.47493 14.8488 2.22708 15.1497 2.97924 15.4004C6.94058 16.5036 11.3532 15.7013 14.3618 12.7427C16.6684 10.4361 17.5209 7.22677 17.5209 4.06762C17.5209 3.96733 17.6713 3.86704 17.7716 3.81689C18.3733 3.36559 18.9249 2.81399 19.3762 2.21225C19.4765 2.06181 19.5266 1.96152 19.5266 1.91138C19.326 1.91138 19.2759 1.96152 19.2258 1.96152Z" fill="#AAAAAA"/>
</svg>
