<svg width="15" height="14" viewBox="0 0 15 14" fill="none" xmlns="http://www.w3.org/2000/svg">
<path d="M0.276129 4.93888C0.360132 4.80781 0.454183 4.68336 0.557451 4.56662C0.708258 4.41839 0.908434 4.38418 1.11875 4.38485C2.04658 4.38485 2.97441 4.38485 3.90224 4.38485C4.47774 4.38485 4.70361 4.5579 4.85983 5.14882C5.19796 5.03681 5.55705 4.96034 5.87422 4.8054C6.50111 4.50022 6.82098 3.97033 6.85547 3.2788C6.87373 2.92868 6.84804 2.57252 6.90484 2.2291C7.00223 1.67978 7.30175 1.18589 7.74537 0.843139C8.18899 0.500386 8.7451 0.333184 9.30593 0.373942C9.86676 0.4147 10.3924 0.660513 10.7809 1.06374C11.1694 1.46697 11.3931 1.99889 11.4087 2.55642C11.4216 3.0749 11.4087 3.59338 11.4128 4.11253V4.38485C11.6833 4.38485 11.9349 4.38485 12.1851 4.38485C12.8101 4.38723 13.416 4.599 13.9044 4.98581C14.3929 5.37262 14.7352 5.91176 14.8759 6.51578C14.928 6.74401 14.9538 6.97734 14.953 7.21134C14.9607 8.5081 14.9607 9.80485 14.953 11.1016C14.9463 12.7208 13.7358 13.9187 12.1012 13.9187C10.5661 13.9234 9.03033 13.9066 7.49522 13.9247C6.55454 13.9361 5.66931 13.7752 4.84833 13.2647C4.81925 13.3318 4.79694 13.3949 4.76989 13.4532C4.63869 13.7369 4.4162 13.9113 4.10242 13.914C3.06548 13.9243 2.02855 13.9243 0.991614 13.914C0.72111 13.914 0.514171 13.7665 0.375537 13.533C0.343076 13.4774 0.307912 13.4224 0.275452 13.3674L0.276129 4.93888ZM4.8321 6.71767C4.8321 8.1933 4.8321 9.63807 4.83683 11.0855C4.84449 11.184 4.88277 11.2778 4.94639 11.3538C5.4874 12.0386 6.20762 12.4095 7.0854 12.4169C8.772 12.4317 10.4593 12.425 12.1465 12.4169C12.8904 12.4169 13.4314 11.8723 13.4362 11.1264C13.4411 9.81313 13.4411 8.49982 13.4362 7.18652C13.4362 6.42859 12.8904 5.89737 12.1242 5.892C11.6772 5.892 11.2302 5.892 10.7832 5.892C10.1888 5.892 9.89459 5.60224 9.89391 5.02004C9.89391 4.25004 9.89391 3.47734 9.89391 2.71069C9.89391 2.22172 9.58216 1.88166 9.14056 1.8783C8.69896 1.87495 8.38044 2.21367 8.37571 2.69929C8.37571 2.88307 8.37571 3.06753 8.37571 3.25131C8.37378 3.94235 8.15057 4.61492 7.73829 5.172C7.32601 5.72907 6.74596 6.14185 6.08183 6.35078C5.67404 6.48158 5.26085 6.59225 4.8321 6.71767ZM3.29631 12.4082V5.91279H1.80853V12.4082H3.29631Z" fill="white"/>
</svg>
